<?xml version="1.0" encoding="UTF-8" standalone="no"?>
<!-- Created with Inkscape (http://www.inkscape.org/) -->

<svg
   width="58.294575mm"
   height="57.480076mm"
   viewBox="0 0 58.294575 57.480076"
   version="1.1"
   id="svg1"
   xmlns="http://www.w3.org/2000/svg"
   xmlns:svg="http://www.w3.org/2000/svg">
  <defs
     id="defs1" />
  <g
     id="full"
     style="display:inline"
     transform="translate(-73.839771,-135.32218)">
    <ellipse
       style="fill:#a05a2c;stroke:#000000;stroke-width:0.406489"
       id="path3"
       cx="161.00122"
       cy="99.127495"
       rx="17.7166"
       ry="22.138435"
       transform="rotate(24.503751)" />
    <ellipse
       style="fill:#a05a2c;stroke:#000000;stroke-width:0.465"
       id="path1"
       cx="74.815453"
       cy="186.65939"
       rx="21.556452"
       ry="9.949131"
       transform="rotate(-6.7898733)" />
    <ellipse
       style="fill:#c87137;stroke:#000000;stroke-width:0.465"
       id="path2"
       cx="182.39119"
       cy="98.014526"
       rx="18.977047"
       ry="13.265509"
       transform="rotate(28.325622)" />
  </g>
  <g
     id="broken"
     style="display:inline"
     transform="translate(-73.839771,-135.32218)">
    <ellipse
       style="fill:#a05a2c;stroke:#000000;stroke-width:0.315347"
       id="path3-4"
       cx="182.29335"
       cy="46.355141"
       rx="13.609822"
       ry="17.344164"
       transform="matrix(0.71703874,0.69703332,-0.68064038,0.73261769,0,0)" />
    <ellipse
       style="fill:#a05a2c;stroke:#000000;stroke-width:0.465"
       id="path1-6"
       cx="128.04099"
       cy="151.65396"
       rx="21.556452"
       ry="9.949131"
       transform="rotate(11.481733)" />
    <ellipse
       style="fill:#c87137;stroke:#000000;stroke-width:0.346335"
       id="path2-4"
       cx="-48.86581"
       cy="206.57635"
       rx="13.520029"
       ry="10.329099"
       transform="matrix(0.78552634,-0.61882822,0.71934743,0.69465046,0,0)" />
    <ellipse
       style="fill:#c87137;stroke:#000000;stroke-width:0.171212"
       id="path2-4-8"
       cx="-93.448463"
       cy="240.6748"
       rx="6.7800994"
       ry="5.0335941"
       transform="matrix(0.86555563,-0.5008128,0.81567206,0.57851456,0,0)" />
    <ellipse
       style="fill:#c87137;stroke:#000000;stroke-width:0.171212"
       id="path2-4-8-4"
       cx="16.329779"
       cy="202.39862"
       rx="6.7800994"
       ry="5.0335941"
       transform="matrix(0.99975631,0.02207531,0.39610894,0.91820352,0,0)" />
    <ellipse
       style="fill:#c87137;stroke:#000000;stroke-width:0.171212"
       id="path2-4-8-2"
       cx="-102.32972"
       cy="236.84012"
       rx="6.7800994"
       ry="5.0335941"
       transform="matrix(0.86555563,-0.5008128,0.81567206,0.57851456,0,0)" />
    <ellipse
       style="fill:#c87137;stroke:#000000;stroke-width:0.171212"
       id="path2-4-8-2-6"
       cx="-112.345"
       cy="222.356"
       rx="6.7800994"
       ry="5.0335941"
       transform="matrix(0.86555563,-0.5008128,0.81567206,0.57851456,0,0)" />
  </g>
</svg>
